<svg xmlns="http://www.w3.org/2000/svg" viewBox="0 0 60 60" fill="#fff" style="enable-background:new 0 0 60 60" xml:space="preserve"><path d="M38.914 0H6.5v60h47V14.586L38.914 0zm.586 3.414L50.086 14H39.5V3.414zM8.5 58V2h29v14h14v42h-43z"/><path d="M34.5 37a1 1 0 1 0 0-2h-17a1 1 0 1 0 0 2h17zm10-7h-7a1 1 0 1 0 0 2h7a1 1 0 1 0 0-2zm-23 1a1 1 0 0 0 1 1h10a1 1 0 1 0 0-2h-10a1 1 0 0 0-1 1zm-4.71-.71c-.18.189-.29.449-.29.71a1.009 1.009 0 0 0 1 1c.27 0 .52-.11.71-.29.18-.19.29-.45.29-.71 0-.261-.11-.521-.29-.71-.37-.37-1.06-.36-1.42 0zm22 5c-.18.189-.29.439-.29.71 0 .27.1.52.29.71.19.18.45.29.71.29.26 0 .52-.11.71-.29a.99.99 0 0 0 .29-.71c0-.261-.11-.521-.29-.71-.38-.37-1.04-.37-1.42 0zm5 0c-.18.189-.29.439-.29.71 0 .27.1.52.29.71.19.18.45.29.71.29.26 0 .52-.11.71-.3.19-.19.29-.44.29-.7 0-.261-.11-.521-.29-.71-.38-.37-1.04-.37-1.42 0zm-20.765 4.876c-2.19 1.14-2.927 3.321-3.196 5.582l-1.242-1.04c-.98-.821-2.402.586-1.414 1.415l2.806 2.351c.658.551 1.676.203 1.707-.707.073-2.166.175-4.742 2.348-5.873 1.143-.595.132-2.322-1.009-1.728zm13.43 3.942c-1.458-.092-3.592 2.155-4.716.153-.26-.464-.913-.638-1.368-.359-1.416.869-3.267 2.119-4.756.5-.873-.949-2.285.468-1.414 1.414 1.87 2.033 4.276 1.415 6.399.263.478.535 1.071.926 1.837 1.081.792.16 4.025-1.141 4.2-.901.752 1.029 2.488.032 1.727-1.009-.517-.707-.993-1.084-1.909-1.142zm-7.789-20.145.674-.479-.344-.752a3.15 3.15 0 0 0-1.45-1.532l-2.12-1.082c.975-.623 1.676-1.561 2.095-2.801a2.316 2.316 0 0 0 1.115-1.984v-.667c0-.677-.294-1.308-.794-1.745-.357-1.898-1.644-3.951-5.54-3.951-.153 0-.303.006-.451.018-.523.043-1.285 0-1.937-.438-.303-.204-.458-.362-.534-.459a1.128 1.128 0 0 0-1.324-.35 1.125 1.125 0 0 0-.694 1.179c.03.257.073.557.138.884.084.42.089.541.086.573-.008.035-.066.159-.112.259-.07.15-.156.335-.257.582a7.632 7.632 0 0 0-.471 1.719 2.323 2.323 0 0 0-.778 1.73v.667c0 .826.431 1.567 1.115 1.984.417 1.235 1.115 2.171 2.083 2.793l-2.204 1.087a3.147 3.147 0 0 0-1.382 1.541l-.32.741.656.469A10.935 10.935 0 0 0 22.302 26c2.29 0 4.49-.704 6.364-2.037zm-10.65-1.056 2.445-1.204c.519-.257.842-.776.842-1.355v-1.422l-.604-.261c-.912-.392-1.506-1.151-1.819-2.321l-.143-.533-.527-.164a.336.336 0 0 1-.24-.313v-.667c0-.142.095-.242.184-.289l.469-.25.055-.529a5.87 5.87 0 0 1 .391-1.622c.086-.211.16-.368.22-.497.155-.332.249-.578.283-.855.73.305 1.559.425 2.44.358.095-.008.192-.012.291-.012 2.919 0 3.469 1.334 3.622 2.638l.061.523.466.245a.334.334 0 0 1 .185.29v.667a.337.337 0 0 1-.24.313l-.527.164-.143.533c-.313 1.17-.908 1.93-1.819 2.321l-.604.261v1.428c0 .57.315 1.086.825 1.347l2.415 1.233c-2.621 1.409-5.916 1.4-8.528-.027z"/></svg>