<svg xmlns="http://www.w3.org/2000/svg" width="41" height="47" viewBox="0 0 41 47" class="ml-3 ml-md-0"><path d="M2424.8 307.614q-.528-.317-1.08-.593a16.164 16.164 0 0 0-1.154-.518c-.124-.052-.247-.1-.372-.149-.343-.127-.689-.268-1.042-.371a19.427 19.427 0 1 0-9.792 37.51v5.56c11.676-1.753 22.016-10.979 22.787-23.093.459-7.289-3.193-14.73-9.347-18.346Z" transform="translate(-2394.517 -303.969)" style="fill-rule:evenodd;fill:#23d96c"/><path d="M2408.855 348.827v-5.935a20.472 20.472 0 1 1 11.172-39.357c.274.08.557.187.832.291l.248.093c.165.064.291.113.417.167.348.137.739.313 1.208.543q.589.295 1.153.633c6.393 3.756 10.354 11.518 9.857 19.316-.763 12-10.722 22.122-23.679 24.067Zm4.8-44.214h-.026a18.366 18.366 0 0 0-3.524 36.408l.85.165v5.18c11.392-2.224 20.009-11.272 20.686-21.922.448-7.033-3.1-14.018-8.83-17.383l-.008-.005a14.691 14.691 0 0 0-2.081-1.036 5.74 5.74 0 0 0-.344-.138l-.27-.1a9.49 9.49 0 0 0-.708-.249 18.425 18.425 0 0 0-5.743-.92Z" transform="translate(-2393.068 -302.52)" style="fill:#173647"/><path d="M2423.863 327.614a1.8 1.8 0 0 1 1.583.608 4.184 4.184 0 0 1 .728 1.107c.645 1.422 1.027 3.461.23 4.605a6.334 6.334 0 0 1-3.981-3.087 3.236 3.236 0 0 1-.347-1.339 1.957 1.957 0 0 1 1.787-1.894Zm-5.683 8.025a7.742 7.742 0 0 0 1.218.737 5.789 5.789 0 0 0 4.883-.138 6.116 6.116 0 0 0-3.345-3.45 3.664 3.664 0 0 0-1.442-.321 1.884 1.884 0 0 0-.319 0 1.766 1.766 0 0 0-.995 3.172Zm6.1 3.433c-.777-.518-2.379-.309-3.312-.292a4.416 4.416 0 0 0-1.666.352 3.5 3.5 0 0 0-1.218.738 1.817 1.817 0 0 0 1.409 3.171 3.3 3.3 0 0 0 1.442-.321c1.436-.62 3.141-2.32 3.346-3.648Zm2.61 2a6.556 6.556 0 0 0-3.724 3.506 3.091 3.091 0 0 0-.321 1.314 1.907 1.907 0 0 0 3.3 1.346 7.422 7.422 0 0 0 .7-1.218c.621-1.333.866-3.72.046-4.948Zm2.557-7.167a5.941 5.941 0 0 0 3.7-3.167 3.243 3.243 0 0 0 .319-1.346 1.915 1.915 0 0 0-1.794-1.954 1.832 1.832 0 0 0-1.6.641 7.382 7.382 0 0 0-.705 1.218c-.62 1.434-.842 3.48.081 4.603Zm4.208 12.115a3.244 3.244 0 0 0-.321-1.345 5.869 5.869 0 0 0-3.554-3.269 5.386 5.386 0 0 0-.226 4.711 4.147 4.147 0 0 0 .7 1.121c1.133 1.23 3.505.32 3.402-1.218Zm4.2-6.28a7.466 7.466 0 0 0-1.217-.7 4.425 4.425 0 0 0-1.666-.352 6.4 6.4 0 0 0-3.188.555 5.959 5.959 0 0 0 3.316 3.386 3.672 3.672 0 0 0 1.442.32 1.8 1.8 0 0 0 1.31-3.209Z" transform="translate(-2407.197 -317.034)" style="fill:#173647;fill-rule:evenodd"/></svg>