<svg xmlns="http://www.w3.org/2000/svg" width="200.231" height="40.841" viewBox="0 0 200.231 40.841">
  <defs><linearGradient id="a" x1=".022" y1="-1.215" x2="1.021" y2="-.358" gradientUnits="objectBoundingBox">
    <stop offset="0" stop-color="#fff"/>
    <stop offset=".025" stop-color="#5ae0fc"/>
    <stop offset=".945" stop-color="#0054cf"/>
    <stop offset="1" stop-color="#0054cf"/>
  </linearGradient></defs><g data-name="Grupo 599">
    <g data-name="Grupo 2" transform="translate(52.827 5.775)" fill="#fff">
      <circle data-name="Elipse 2" cx="2.085" cy="2.085" r="2.085" transform="translate(91.725 .521)"/><g data-name="Grupo 1"><path data-name="Trazado 2" d="M47.758 9.666a8.592 8.592 0 0 0-2.8-1.8 8.979 8.979 0 0 0-6.775 0 7.807 7.807 0 0 0-2.748 1.848 9.181 9.181 0 0 0-1.9 2.748 8.088 8.088 0 0 0-.711 3.364 8.874 8.874 0 0 0 .664 3.364 9.989 9.989 0 0 0 1.848 2.748 8.767 8.767 0 0 0 6.159 2.464 9.3 9.3 0 0 0 3.412-.663 9.129 9.129 0 0 0 2.795-1.8 7.626 7.626 0 0 0 1.848-2.7 8.124 8.124 0 0 0 .664-3.411 9.3 9.3 0 0 0-.664-3.411 6.777 6.777 0 0 0-1.792-2.751Zm-1.9 8.054a4.414 4.414 0 0 1-.995 1.563 3.981 3.981 0 0 1-1.468 1.042 4.467 4.467 0 0 1-3.6 0 4.61 4.61 0 0 1-1.468-1.042 5.447 5.447 0 0 1-.995-1.563 5.163 5.163 0 0 1 0-3.885 4.408 4.408 0 0 1 .995-1.563 3.975 3.975 0 0 1 1.468-1.042 4.469 4.469 0 0 1 3.6 0 4.614 4.614 0 0 1 1.468 1.042 5.46 5.46 0 0 1 .995 1.563 5.163 5.163 0 0 1 0 3.885Z"/><path data-name="Trazado 3" d="M113.377 9.666a8.59 8.59 0 0 0-2.8-1.8 8.979 8.979 0 0 0-6.775 0 7.815 7.815 0 0 0-2.748 1.848 9.19 9.19 0 0 0-1.9 2.748 8.088 8.088 0 0 0-.711 3.364 8.874 8.874 0 0 0 .663 3.364 9.995 9.995 0 0 0 1.848 2.748 8.769 8.769 0 0 0 6.159 2.464 9.3 9.3 0 0 0 3.411-.663 9.128 9.128 0 0 0 2.8-1.8 7.633 7.633 0 0 0 1.848-2.7 8.12 8.12 0 0 0 .663-3.411 9.3 9.3 0 0 0-.663-3.411 7.3 7.3 0 0 0-1.795-2.751Zm-1.9 8.054a4.418 4.418 0 0 1-1 1.563 3.976 3.976 0 0 1-1.469 1.042 4.466 4.466 0 0 1-3.6 0 4.611 4.611 0 0 1-1.469-1.042 5.475 5.475 0 0 1-1-1.563 5.169 5.169 0 0 1 0-3.885 4.426 4.426 0 0 1 1-1.563 3.976 3.976 0 0 1 1.469-1.042 4.467 4.467 0 0 1 3.6 0 4.607 4.607 0 0 1 1.469 1.042 5.467 5.467 0 0 1 1 1.563 5.166 5.166 0 0 1 0 3.885Z"/><path data-name="Trazado 4" d="M16.724 12.272a7.871 7.871 0 0 0-1.942-2.7 9 9 0 0 0-2.8-1.753 8.767 8.767 0 0 0-3.317-.616 9.3 9.3 0 0 0-3.411.663 8.5 8.5 0 0 0-2.748 1.848 7.811 7.811 0 0 0-1.848 2.748 8.054 8.054 0 0 0-.664 3.364 8.874 8.874 0 0 0 .664 3.364 8.613 8.613 0 0 0 4.6 4.6 8.342 8.342 0 0 0 3.459.663 11.98 11.98 0 0 0 3.458-.521 8.963 8.963 0 0 0 1.706-.758 1.774 1.774 0 0 0-.663-3.411 1.71 1.71 0 0 0-.948.284 4.571 4.571 0 0 1-1.184.569 7.331 7.331 0 0 1-2.227.379 4.693 4.693 0 0 1-1.658-.284 4.042 4.042 0 0 1-1.326-.758 5.453 5.453 0 0 1-1-1.09 4.819 4.819 0 0 1-.616-1.327h11.8a1.375 1.375 0 0 0 1.374-1.374v-.284a8.566 8.566 0 0 0-.709-3.606Zm-12.508 1.9a5.194 5.194 0 0 1 1.706-2.511 4.394 4.394 0 0 1 2.748-.947 4.628 4.628 0 0 1 2.8.947 4.982 4.982 0 0 1 1.706 2.511Z"/><path data-name="Trazado 5" d="M29.896 16.109a7.286 7.286 0 0 0-1.658-1.137 12.448 12.448 0 0 0-1.99-.806 15.96 15.96 0 0 1-2.464-.948q-.853-.5-.853-1.137a1.132 1.132 0 0 1 .237-.663 1.391 1.391 0 0 1 .568-.474 2.088 2.088 0 0 1 .758-.284 4.717 4.717 0 0 1 .758-.095 4.158 4.158 0 0 1 1.99.521 6.152 6.152 0 0 1 .71.474 1.719 1.719 0 0 0 2.8-1.327 1.763 1.763 0 0 0-.616-1.327 8.064 8.064 0 0 0-7.249-1.374 7.408 7.408 0 0 0-2.038.995 5.129 5.129 0 0 0-1.469 1.563 3.986 3.986 0 0 0-.568 2.132 4.132 4.132 0 0 0 .426 1.9 4.884 4.884 0 0 0 1.137 1.469 6.417 6.417 0 0 0 1.611 1.09 14.75 14.75 0 0 0 1.848.711 14.406 14.406 0 0 1 2.558 1 1.427 1.427 0 0 1 .9 1.232 1.093 1.093 0 0 1-.616 1.042 3.254 3.254 0 0 1-1.611.332 4.532 4.532 0 0 1-2.085-.521 3.728 3.728 0 0 1-.71-.474 1.7 1.7 0 0 0-1.137-.427 1.749 1.749 0 0 0-1.753 1.753 1.622 1.622 0 0 0 .569 1.279 5.491 5.491 0 0 0 1.706 1.09 8.206 8.206 0 0 0 3.458.711 7.852 7.852 0 0 0 4.265-1.279 5.121 5.121 0 0 0 1.468-1.563 4.145 4.145 0 0 0 .569-2.179 3.744 3.744 0 0 0-.426-1.8 4.108 4.108 0 0 0-1.093-1.479Z"/><path data-name="Trazado 6" d="M147.017 17.531a5.367 5.367 0 0 0-1.137-1.421 7.29 7.29 0 0 0-1.658-1.137 12.454 12.454 0 0 0-1.99-.806 15.985 15.985 0 0 1-2.464-.948q-.853-.5-.853-1.137a1.13 1.13 0 0 1 .238-.663 1.391 1.391 0 0 1 .568-.474 2.1 2.1 0 0 1 .758-.284 4.721 4.721 0 0 1 .758-.095 4.158 4.158 0 0 1 1.99.521 6.244 6.244 0 0 1 .711.474 1.718 1.718 0 0 0 2.795-1.327 1.764 1.764 0 0 0-.615-1.327 8.064 8.064 0 0 0-7.249-1.374 7.4 7.4 0 0 0-2.037.995 5.13 5.13 0 0 0-1.469 1.563 3.988 3.988 0 0 0-.568 2.132 4.129 4.129 0 0 0 .426 1.9 4.9 4.9 0 0 0 1.137 1.469 6.42 6.42 0 0 0 1.611 1.09 14.736 14.736 0 0 0 1.848.711 14.447 14.447 0 0 1 2.559 1 1.427 1.427 0 0 1 .9 1.232 1.093 1.093 0 0 1-.616 1.042 3.254 3.254 0 0 1-1.611.332 4.527 4.527 0 0 1-2.084-.521 3.716 3.716 0 0 1-.711-.474 1.7 1.7 0 0 0-1.137-.427 1.749 1.749 0 0 0-1.753 1.753 1.622 1.622 0 0 0 .569 1.279 5.494 5.494 0 0 0 1.706 1.09 8.207 8.207 0 0 0 3.458.711 7.848 7.848 0 0 0 4.264-1.279 5.127 5.127 0 0 0 1.469-1.563 4.161 4.161 0 0 0 .568-2.179 3.33 3.33 0 0 0-.381-1.858Z"/><path data-name="Trazado 7" d="M74.191 7.202a2.022 2.022 0 0 0-2.038 2.037v10.186a4.8 4.8 0 0 1-3.411 1.374 3.272 3.272 0 0 1-1.184-.189 2.828 2.828 0 0 1-.995-.663 3.623 3.623 0 0 1-.711-1.09 3.843 3.843 0 0 1-.284-1.563V9.287a2.038 2.038 0 1 0-4.075 0v8.291a8.542 8.542 0 0 0 .522 3.08 5.675 5.675 0 0 0 3.458 3.364 6.718 6.718 0 0 0 2.369.379 9.174 9.174 0 0 0 1.137-.095 8.634 8.634 0 0 0 1.184-.332 7.66 7.66 0 0 0 1.09-.521 3.308 3.308 0 0 0 .9-.711 2.035 2.035 0 0 0 1.99 1.753 1.964 1.964 0 0 0 1.99-1.753h.048v-13.5a2.012 2.012 0 0 0-1.99-2.04Z"/><path data-name="Trazado 8" d="M130.86 8.954a5.607 5.607 0 0 0-2.037-1.232 6.714 6.714 0 0 0-2.369-.379 9.265 9.265 0 0 0-1.137.095 8.675 8.675 0 0 0-1.184.332 7.765 7.765 0 0 0-1.09.521 3.314 3.314 0 0 0-.9.711 2.035 2.035 0 0 0-1.99-1.753 1.964 1.964 0 0 0-1.99 1.753h-.047V22.41a2.037 2.037 0 1 0 4.074 0V12.176a4.8 4.8 0 0 1 3.411-1.374 3.275 3.275 0 0 1 1.184.189 2.826 2.826 0 0 1 1 .664 3.612 3.612 0 0 1 .71 1.089 3.836 3.836 0 0 1 .284 1.564v8.054a2.038 2.038 0 0 0 4.075 0v-8.244a8.539 8.539 0 0 0-.521-3.08 7.092 7.092 0 0 0-1.473-2.084Z"/><path data-name="Trazado 9" d="M95.847 9.287a2.085 2.085 0 1 0-4.17 0v13.076a2.085 2.085 0 0 0 4.17 0 1.312 1.312 0 0 0-.047-.426V9.713a1.313 1.313 0 0 0 .047-.426Z"/><path data-name="Trazado 10" d="M87.935 20.516c-.143 0-.284.047-.426.047a5.273 5.273 0 0 1-1.09.142 3.654 3.654 0 0 1-.711-.095.88.88 0 0 1-.568-.332 6.916 6.916 0 0 1-.426-.616 3.143 3.143 0 0 1-.142-.995v-7.438h2.748a1.85 1.85 0 0 0 0-3.7h-2.748v-4.88a.669.669 0 0 0-.663-.474.648.648 0 0 0-.664.663 9.536 9.536 0 0 1-1.658 3.98 7.787 7.787 0 0 1-3.175 2.416.926.926 0 0 0-.616.9.95.95 0 0 0 .947.948h1.753v7.154a11.112 11.112 0 0 0 .284 2.653 4.776 4.776 0 0 0 .853 1.848 3.455 3.455 0 0 0 1.563 1.09 7.262 7.262 0 0 0 2.416.332 6.59 6.59 0 0 0 1.658-.19 3.834 3.834 0 0 0 1.279-.521 1.509 1.509 0 0 0-.616-2.937Z"/><path data-name="Trazado 11" d="M59.033 20.894h-.237c-.142 0-.237.047-.379.047a1.53 1.53 0 0 1-.995-.379 1.816 1.816 0 0 1-.426-1.422V2.084a2.085 2.085 0 0 0-4.169 0v17.767a5.463 5.463 0 0 0 .379 2.085 3.853 3.853 0 0 0 1 1.422 3.351 3.351 0 0 0 1.469.758 7.118 7.118 0 0 0 1.753.237 5.882 5.882 0 0 0 1.279-.142c.332-.095.616-.19.9-.284.047 0 .047-.047.095-.047s.047-.047.094-.047a1.567 1.567 0 0 0-.758-2.937Z"/></g></g><g data-name="Grupo 603"><path data-name="Trazado 1" d="M2155.477 1228.313a13.252 13.252 0 0 0-8.054 2.653l-.284.284c-.143-.095-.237-.189-.379-.284a13.742 13.742 0 0 0-7.96-2.558h-.474a8.584 8.584 0 0 1 13.456-7.059 2.428 2.428 0 0 0 1.611.616 2.528 2.528 0 0 0 2.511-2.511 2.41 2.41 0 0 0-1.09-2.037 13.649 13.649 0 0 0-21.6 11.087 9.086 9.086 0 0 0 .048 1.137 13.6 13.6 0 0 0 5.5 26.058 13.706 13.706 0 0 0 8.1-2.653 14.414 14.414 0 0 0 3.459-3.743 13.668 13.668 0 0 0 2.037-6.728v-.285a2.528 2.528 0 0 0-2.511-2.511 2.487 2.487 0 0 0-2.511 2.464 1.8 1.8 0 0 1-.047.379v.142a.6.6 0 0 1-.048.284 1.03 1.03 0 0 1-.047.284 10.487 10.487 0 0 1-.426 1.753 8.759 8.759 0 0 1-3.459 4.264 8.38 8.38 0 0 1-4.549 1.327 8.576 8.576 0 0 1 0-17.151 8.84 8.84 0 0 1 4.454 1.232c.048.047.095.047.142.094l-6.68 6.4a2.513 2.513 0 0 0 1.753 4.311 2.3 2.3 0 0 0 1.8-.805c.711-.711 1.469-1.374 2.179-2.085 1.469-1.421 2.653-2.511 4.122-3.932 1.232-1.184 2.464-2.322 3.7-3.553a7.421 7.421 0 0 1 5.212-1.848 8.576 8.576 0 0 1 0 17.151c-.379 0-.711-.047-1.042-.047h-.569a2.528 2.528 0 0 0-2.511 2.511 2.588 2.588 0 0 0 2.132 2.511l.332.047c.521.048 1.089.095 1.658.095a13.645 13.645 0 0 0 .047-27.29Z" fill="url(#a)" transform="translate(-2125.107 -1214.857)"/></g></g></svg>