<?xml version="1.0" encoding="UTF-8"?>
<svg xmlns="http://www.w3.org/2000/svg" width="601" height="167" viewBox="0 0 601 167" fill="none">
  <g clip-path="url(#clip0_511_1288)">
    <path d="M323.833 121.097V157.288C319.456 160.55 314.55 163.033 309.33 164.63C303.974 166.209 298.414 166.987 292.83 166.939C286.07 167.041 279.349 165.889 273.009 163.54C267.382 161.413 262.245 158.165 257.91 153.993C253.706 149.899 250.409 144.967 248.233 139.517C245.926 133.67 244.772 127.433 244.835 121.149C244.762 114.824 245.87 108.542 248.104 102.625C252.222 91.5932 260.918 82.8873 271.946 78.757C278.123 76.4463 284.679 75.3112 291.273 75.4103C294.682 75.3914 298.086 75.6779 301.443 76.2664C304.438 76.8081 307.38 77.6066 310.238 78.6532C312.825 79.6183 315.304 80.8531 317.632 82.3372C319.837 83.7696 321.912 85.393 323.833 87.1886L319.059 94.7382C318.443 95.8437 317.387 96.6359 316.153 96.9174C314.79 97.1539 313.389 96.8363 312.262 96.0353L308.266 93.6745C306.819 92.854 305.299 92.1679 303.726 91.625C301.889 91.012 300.007 90.5436 298.097 90.224C295.715 89.8145 293.301 89.6234 290.884 89.6532C286.789 89.597 282.724 90.3554 278.924 91.8844C275.44 93.2996 272.319 95.4809 269.792 98.2665C267.191 101.153 265.213 104.544 263.981 108.229C262.562 112.404 261.869 116.791 261.931 121.2C261.853 125.861 262.599 130.498 264.137 134.899C265.455 138.701 267.559 142.184 270.311 145.12C272.996 147.887 276.255 150.03 279.858 151.399C286.725 153.88 294.171 154.277 301.262 152.54C303.885 151.833 306.439 150.887 308.889 149.712V133.601H297.604C296.649 133.681 295.706 133.351 295.009 132.693C294.413 132.117 294.084 131.318 294.101 130.488V121.097H323.833ZM350.995 113.495C352.692 110.049 355.097 106.999 358.052 104.545C360.791 102.369 364.206 101.222 367.703 101.302C370.2 101.17 372.674 101.843 374.759 103.222L373.774 114.663C373.646 115.267 373.339 115.819 372.892 116.245C372.429 116.569 371.873 116.733 371.309 116.712C370.386 116.681 369.466 116.577 368.559 116.401C367.376 116.197 366.179 116.092 364.979 116.09C363.443 116.063 361.915 116.309 360.465 116.816C359.157 117.309 357.952 118.039 356.91 118.969C355.819 119.946 354.883 121.083 354.134 122.342C353.264 123.785 352.509 125.294 351.877 126.856V165.953H336.804V102.469H345.755C346.916 102.356 348.081 102.649 349.05 103.3C349.794 104.133 350.233 105.194 350.295 106.309L350.995 113.495ZM428.852 116.09C427.875 113.2 426.302 110.548 424.234 108.307C422.169 106.056 419.636 104.285 416.814 103.118C413.646 101.859 410.26 101.241 406.852 101.302C397.09 101.087 387.628 104.678 380.467 111.316L383.476 116.193C383.937 116.963 384.545 117.633 385.267 118.165C386.058 118.735 387.016 119.027 387.991 118.995C389.174 119.012 390.34 118.707 391.363 118.113L394.736 116.167C396.097 115.382 397.53 114.731 399.017 114.222C401.013 113.597 403.1 113.308 405.191 113.366C408.11 113.191 410.957 114.311 412.974 116.427C415.004 119.137 415.972 122.496 415.698 125.87V129.606C411.355 129.665 407.021 130.02 402.727 130.67C399.372 131.169 396.066 131.95 392.842 133.005C390.323 133.79 387.922 134.916 385.708 136.351C383.934 137.469 382.334 138.842 380.96 140.425C379.813 141.758 378.932 143.299 378.366 144.965C377.834 146.509 377.563 148.131 377.561 149.764C377.504 152.329 377.963 154.878 378.91 157.262C379.761 159.323 381.075 161.16 382.75 162.632C384.464 164.12 386.47 165.233 388.639 165.901C391.045 166.626 393.546 166.985 396.059 166.965C398.148 166.984 400.234 166.793 402.285 166.394C404.069 166.001 405.807 165.427 407.474 164.682C409.142 163.922 410.732 163.001 412.222 161.932C413.868 160.753 415.444 159.479 416.944 158.118L418.293 162.71C418.573 163.776 419.239 164.7 420.161 165.304C421.196 165.795 422.338 166.018 423.481 165.953H430.434V126C430.463 122.631 429.928 119.282 428.852 116.09ZM415.491 149.531C413.567 151.635 411.294 153.391 408.771 154.719C406.225 155.913 403.436 156.499 400.625 156.432C398.425 156.537 396.249 155.927 394.425 154.693C391.774 152.23 391.261 148.224 393.205 145.172C394.204 143.827 395.549 142.778 397.097 142.137C399.405 141.111 401.839 140.395 404.335 140.01C408.023 139.367 411.75 138.977 415.491 138.842V149.531ZM484.604 74.0094V107.502C482.636 105.615 480.354 104.088 477.859 102.988C474.972 101.807 471.871 101.241 468.753 101.328C464.848 101.302 460.992 102.19 457.493 103.922C454.157 105.595 451.226 107.977 448.906 110.901C446.432 113.985 444.558 117.505 443.38 121.278C442.073 125.53 441.425 129.958 441.46 134.406C441.395 139.08 441.971 143.742 443.172 148.26C444.143 151.877 445.779 155.282 447.998 158.3C451.951 163.713 458.289 166.867 464.991 166.757C469.014 166.887 473.004 165.995 476.588 164.163C479.925 162.334 482.912 159.927 485.408 157.054L486.706 163.177C487.113 164.931 488.752 166.116 490.545 165.953H499.885V73.9834L484.604 74.0094ZM484.682 147.144C482.917 149.386 480.764 151.293 478.326 152.774C475.849 154.159 473.041 154.841 470.206 154.745C468.36 154.777 466.529 154.414 464.835 153.682C463.166 152.912 461.746 151.689 460.736 150.153C459.486 148.223 458.606 146.076 458.142 143.823C457.497 140.727 457.202 137.568 457.26 134.406C457.203 131.184 457.552 127.968 458.297 124.833C458.859 122.431 459.89 120.165 461.333 118.165C462.594 116.465 464.262 115.109 466.184 114.222C468.149 113.338 470.283 112.895 472.437 112.925C474.698 112.914 476.938 113.355 479.026 114.222C481.238 115.241 483.176 116.771 484.682 118.684V147.144ZM530.524 74.0094V165.953H515.243V74.0094H530.524ZM592.425 149.505C591.39 149.532 590.38 149.827 589.493 150.361C588.56 150.932 587.314 151.58 585.965 152.281C584.457 153.053 582.886 153.695 581.269 154.201C579.189 154.81 577.029 155.099 574.861 155.057C572.553 155.094 570.258 154.707 568.09 153.915C566.123 153.17 564.35 151.991 562.901 150.465C561.318 148.767 560.099 146.763 559.321 144.576C558.33 141.857 557.745 139.007 557.583 136.118L596.861 136.092C597.958 136.234 599.046 135.779 599.715 134.899C600.339 133.426 600.597 131.823 600.467 130.229C600.536 126.062 599.833 121.919 598.392 118.009C597.14 114.629 595.186 111.552 592.659 108.981C590.196 106.501 587.221 104.588 583.942 103.377C580.398 102.063 576.643 101.412 572.864 101.458C568.467 101.433 564.113 102.316 560.074 104.052C556.453 105.607 553.193 107.895 550.5 110.771C547.841 113.656 545.786 117.043 544.456 120.734C543.037 124.65 542.325 128.787 542.354 132.953C542.258 137.962 543.076 142.947 544.767 147.663C546.215 151.627 548.468 155.248 551.382 158.3C554.178 161.152 557.559 163.365 561.293 164.786C565.226 166.287 569.406 167.035 573.616 166.991C575.916 166.989 578.214 166.824 580.491 166.498C582.877 166.161 585.223 165.587 587.496 164.785C589.81 163.972 592.021 162.893 594.085 161.569C596.225 160.212 598.142 158.531 599.767 156.587L595.279 150.932C594.658 149.972 593.565 149.425 592.425 149.505ZM562.694 116.193C565.502 113.588 569.246 112.231 573.071 112.432C575.118 112.394 577.15 112.782 579.038 113.573C580.671 114.279 582.119 115.353 583.267 116.712C584.428 118.056 585.31 119.617 585.861 121.304C586.427 123.118 586.716 125.008 586.718 126.908H557.842C558.251 122.904 559.954 119.142 562.694 116.193Z" fill="white"></path>
    <path d="M212.95 11.3044C199.376 -2.28055 177.472 -2.6479 163.45 10.4743C162.775 11.0954 162.39 11.9698 162.386 12.887C162.367 13.8082 162.723 14.6977 163.372 15.3517L167.86 19.8399C169.057 21.031 170.946 21.1637 172.297 20.1511C175.816 17.4954 180.108 16.0649 184.516 16.078C195.792 16.0778 204.934 25.2189 204.934 36.4952C204.934 41.9041 202.788 47.092 198.967 50.9202C170.766 79.2763 132.915 0.0450265 47.2754 40.8021C41.4538 43.5063 38.9265 50.4178 41.6307 56.2395C41.7701 56.5395 41.9222 56.8335 42.0867 57.1206L56.7706 82.5193C59.9588 88.0179 66.9662 89.9458 72.5183 86.8518L72.8815 86.6443L72.5962 86.8518L79.1079 83.1937C86.3718 78.695 93.2373 73.5827 99.6293 67.9131C100.928 66.7016 102.922 66.6351 104.299 67.7574C105.732 68.9251 105.947 71.0332 104.779 72.466C104.636 72.6419 104.475 72.8027 104.299 72.9461C97.6292 78.9529 90.4505 84.3695 82.8438 89.1348L82.6104 89.2645L76.0986 92.8966C73.3537 94.4522 70.2511 95.2658 67.0962 95.2575C60.4423 95.2739 54.2835 91.7447 50.9334 85.9957L37.0277 62.0239C10.3579 80.8588 -5.83089 117.154 2.8602 163.074C3.17138 164.675 4.57599 165.829 6.20691 165.824H22.0064C23.7577 165.891 25.2685 164.605 25.4829 162.866C27.1386 150.164 38.7778 141.209 51.4797 142.865C61.911 144.225 70.1209 152.435 71.4806 162.866C71.6874 164.536 73.0931 165.798 74.7754 165.824H90.1858C91.8934 165.825 93.3369 164.559 93.5585 162.866C95.1574 150.171 106.745 141.176 119.439 142.775C129.939 144.098 138.208 152.367 139.53 162.866C139.74 164.555 141.175 165.824 142.877 165.824H158.106C159.948 165.824 161.45 164.345 161.478 162.503C161.842 141.022 167.627 116.349 184.153 104C241.203 61.2456 226.181 24.5875 212.95 11.3044ZM154.655 75.9815V75.9555L143.759 70.4815C143.745 66.6989 146.8 63.6211 150.583 63.6071C154.365 63.5931 157.443 66.6481 157.457 70.4307C157.465 72.6227 156.424 74.6862 154.655 75.9815Z" fill="url(#paint0_linear_511_1288)"></path>
  </g>
  <defs>
    <linearGradient id="paint0_linear_511_1288" x1="44.865" y1="15.064" x2="167.797" y2="156.269" gradientUnits="userSpaceOnUse">
      <stop stop-color="#209BC4"></stop>
      <stop offset="1" stop-color="#4DC9C0"></stop>
    </linearGradient>
    <clipPath id="clip0_511_1288">
      <rect width="600" height="166.124" fill="white" transform="translate(0.5 0.869141)"></rect>
    </clipPath>
  </defs>
</svg>
