<svg xmlns="http://www.w3.org/2000/svg" width="1728" height="360" viewBox="0 0 1728 360" fill="#fff"><g clip-path="url(#a)"><path fill-rule="evenodd" clip-rule="evenodd" d="M1285.27 307.335c9.83 0 19.55-5.062 19.55-13.794v-2.025l-16.15 1.265c-9.58.76-14.25 3.417-14.25 7.72 0 5.189 5.55 6.834 10.85 6.834Zm5.92-52.52c19.56 0 33.18 8.353 33.18 28.728v35.814h-18.29v-11.643c-5.68 8.859-14.51 12.909-27.12 12.909-13.12 0-23.97-5.568-23.97-18.983 0-15.44 16.02-18.73 31.03-20.122l18.8-1.265v-.886c0-7.594-6.18-10.631-13.63-10.631-8.19 0-13.11 2.278-14.25 7.214h-18.04c.76-15.44 15.9-21.135 32.29-21.135Zm396.44 52.52c9.84 0 19.55-5.062 19.55-13.794v-2.025l-16.14 1.265c-9.59.76-14.26 3.417-14.26 7.72 0 5.189 5.55 6.834 10.85 6.834Zm5.93-52.52c19.55 0 33.17 8.353 33.17 28.728v35.814h-18.29v-11.643c-5.67 8.859-14.5 12.909-27.12 12.909-13.11 0-23.96-5.568-23.96-18.983 0-15.439 16.02-18.73 31.03-20.122l18.79-1.265v-.886c0-7.593-6.18-10.631-13.62-10.631-8.2 0-13.12 2.278-14.25 7.214h-18.04c.76-15.44 15.89-21.135 32.29-21.135Zm-286.58 1.266h-21.06l-17.91 51.887-17.28-51.887h-21.32l23.84 63.276h29.52l24.21-63.276Zm41.38 12.655c-10.35 0-16.4 4.05-18.29 12.656h35.06c-1.01-8.733-7.94-12.656-16.77-12.656Zm36.2 22.906v2.278h-54.62c1.89 8.859 8.2 13.415 19.3 13.415 6.94 0 11.98-2.278 15.26-6.454l19.05 1.012c-4.8 13.921-19.05 18.73-34.31 18.73-22.58 0-39.1-9.238-39.1-33.03 0-23.286 16.27-32.778 38.22-32.778 24.72 0 36.2 11.77 36.2 36.827Zm52.72-36.827c17.28 0 25.48 10.125 25.48 27.336v37.206h-19.8v-31.132c0-10.25-3.03-17.59-13.25-17.59-11.1 0-16.65 8.099-16.65 19.362v29.36h-19.67v-63.276h18.41v12.276c5.05-9.112 13.5-13.542 25.48-13.542Zm73.41 50.622c10.85 0 18.92-6.455 18.92-17.338 0-9.365-6.43-17.464-18.92-17.464-10.98 0-18.54 6.58-18.54 17.464 0 11.643 8.45 17.338 18.54 17.338Zm18.67-39.105v-10.251h19.17v54.924c0 26.196-11.61 38.092-37.72 38.092-17.53 0-33.55-6.074-34.68-23.539h19.42c1.39 5.189 6.43 7.72 15.26 7.72 11.73 0 17.16-5.315 17.16-17.084v-5.948c-5.8 6.96-13.37 10.377-23.59 10.377-19.04 0-32.79-12.655-32.79-33.283 0-20.502 14.38-32.525 32.79-32.525 11.35 0 19.43 3.671 24.98 11.517Z"/><path d="M511.152 257.364h9.537v10.575c6.018-8.324 14.919-12.486 26.702-12.486 6.018 0 11.443 1.359 16.275 4.077 4.832 2.718 8.647 6.54 11.444 11.466 2.797 4.927 4.196 10.618 4.196 17.073 0 6.371-1.399 12.019-4.196 16.945-2.713 4.927-6.527 8.749-11.444 11.467-4.832 2.633-10.257 3.95-16.275 3.95-5.51 0-10.639-1.02-15.386-3.058-4.747-2.124-8.434-5.181-11.062-9.173v38.222h-9.791v-89.058Zm34.204 55.295c4.578 0 8.689-1.019 12.334-3.058 3.73-2.038 6.612-4.884 8.646-8.536 2.12-3.738 3.179-8.069 3.179-12.996 0-4.841-1.059-9.131-3.179-12.868-2.034-3.822-4.916-6.753-8.646-8.791-3.645-2.039-7.756-3.058-12.334-3.058-5.764 0-10.85 1.529-15.258 4.587-4.323 2.973-7.375 7.092-9.155 12.358v15.162c1.611 5.181 4.62 9.343 9.028 12.486 4.493 3.142 9.621 4.714 15.385 4.714Zm76.02 7.772c-6.612 0-12.504-1.317-17.675-3.95-5.086-2.633-9.07-6.37-11.952-11.212-2.797-4.926-4.196-10.66-4.196-17.2 0-6.455 1.441-12.146 4.323-17.073 2.882-4.926 6.866-8.748 11.953-11.466 5.17-2.718 11.019-4.077 17.547-4.077 6.527 0 12.333 1.359 17.419 4.077 5.171 2.718 9.198 6.54 12.08 11.466 2.882 4.927 4.323 10.618 4.323 17.073 0 6.54-1.441 12.274-4.323 17.2-2.797 4.842-6.782 8.579-11.952 11.212-5.087 2.633-10.936 3.95-17.547 3.95Zm0-7.772c7.29 0 13.096-2.209 17.419-6.625 4.408-4.502 6.612-10.49 6.612-17.965 0-7.559-2.204-13.548-6.612-17.964-4.323-4.502-10.129-6.753-17.419-6.753-7.291 0-13.14 2.251-17.547 6.753-4.324 4.416-6.485 10.405-6.485 17.964 0 7.475 2.161 13.463 6.485 17.965 4.407 4.416 10.256 6.625 17.547 6.625Zm36.925-55.295h10.173l15.131 49.307 14.876-49.307h9.283l15.004 49.307 15.004-49.307h10.299l-19.582 61.156h-10.045l-15.258-49.817-15.258 49.817h-10.172l-19.455-61.156Zm132.67 63.067c-11.105 0-19.793-2.846-26.066-8.537-6.188-5.69-9.282-13.632-9.282-23.825 0-10.023 2.797-17.964 8.392-23.825 5.594-5.861 13.563-8.791 23.904-8.791 6.951 0 12.843 1.359 17.674 4.077 4.832 2.633 8.477 6.285 10.936 10.957 2.458 4.671 3.687 9.98 3.687 15.926v5.351h-55.438c.339 6.965 2.882 12.189 7.629 15.671 4.831 3.483 11.359 5.224 19.581 5.224 3.984 0 7.884-.34 11.698-1.019 3.899-.765 7.375-1.784 10.427-3.058v8.281c-2.543 1.02-6.019 1.869-10.427 2.548-4.323.68-8.561 1.02-12.715 1.02Zm20.09-35.674c-.17-6.626-2.204-11.849-6.103-15.672-3.9-3.822-9.622-5.733-17.166-5.733-7.375 0-13.012 1.996-16.911 5.988-3.9 3.907-5.934 9.046-6.103 15.417h46.283Zm23.192-27.393h9.537v11.976c4.916-7.984 14.114-11.976 27.592-11.976v7.899c-14.75 0-23.862 4.884-27.338 14.652v38.605h-9.791v-61.156Zm77.478 63.067c-11.105 0-19.794-2.846-26.066-8.537-6.188-5.69-9.283-13.632-9.283-23.825 0-10.023 2.798-17.964 8.393-23.825 5.594-5.861 13.562-8.791 23.904-8.791 6.951 0 12.843 1.359 17.674 4.077 4.832 2.633 8.477 6.285 10.935 10.957 2.459 4.671 3.688 9.98 3.688 15.926v5.351h-55.439c.34 6.965 2.883 12.189 7.63 15.671 4.831 3.483 11.359 5.224 19.581 5.224 3.984 0 7.884-.34 11.698-1.019 3.899-.765 7.375-1.784 10.427-3.058v8.281c-2.543 1.02-6.019 1.869-10.427 2.548-4.323.68-8.562 1.02-12.715 1.02Zm20.09-35.674c-.17-6.626-2.204-11.849-6.103-15.672-3.9-3.822-9.622-5.733-17.166-5.733-7.375 0-13.012 1.996-16.911 5.988-3.9 3.907-5.934 9.046-6.104 15.417h46.284Zm52.564 35.674c-6.018 0-11.443-1.317-16.275-3.95-4.832-2.633-8.646-6.413-11.444-11.339-2.797-4.927-4.196-10.618-4.196-17.073 0-6.37 1.357-12.019 4.069-16.945 2.797-5.011 6.612-8.876 11.444-11.594 4.916-2.718 10.384-4.077 16.402-4.077 5.849 0 11.02 1.061 15.513 3.185 4.582 2.038 8.222 5.054 10.932 9.046v-43.319h9.79v94.155h-9.53v-10.703c-3.22 4.247-7.04 7.432-11.446 9.556-4.323 2.038-9.41 3.058-15.259 3.058Zm2.035-7.772c5.849 0 10.935-1.487 15.26-4.459 4.41-3.058 7.46-7.22 9.15-12.486v-15.289c-1.61-5.267-4.62-9.429-9.02-12.486-4.328-3.058-9.456-4.587-15.39-4.587-4.493 0-8.604 1.062-12.334 3.185-3.645 2.039-6.527 4.927-8.646 8.664-2.119 3.737-3.179 8.027-3.179 12.868 0 4.842 1.06 9.131 3.179 12.868 2.119 3.738 5.001 6.626 8.646 8.664 3.73 2.039 7.841 3.058 12.334 3.058Zm134.04 7.772c-5.85 0-10.98-1.02-15.39-3.058-4.32-2.124-8.1-5.309-11.32-9.556v10.703h-9.53v-94.155h9.79v43.319c2.63-3.992 6.31-7.008 11.06-9.046 4.75-2.124 9.88-3.185 15.39-3.185 6.01 0 11.44 1.359 16.27 4.077 4.92 2.718 8.73 6.583 11.44 11.594 2.8 4.926 4.2 10.575 4.2 16.945 0 6.455-1.4 12.146-4.2 17.073-2.79 4.926-6.61 8.706-11.44 11.339-4.83 2.633-10.26 3.95-16.27 3.95Zm-2.04-7.772c4.49 0 8.56-1.019 12.21-3.058 3.73-2.038 6.65-4.926 8.77-8.664 2.12-3.737 3.18-8.026 3.18-12.868 0-4.841-1.06-9.131-3.18-12.868s-5.04-6.625-8.77-8.664c-3.65-2.123-7.72-3.185-12.21-3.185-5.76 0-10.89 1.529-15.38 4.587-4.41 3.057-7.42 7.219-9.03 12.486v15.289c1.69 5.266 4.7 9.428 9.03 12.486 4.4 2.972 9.53 4.459 15.38 4.459Zm51.09 31.087c-3.9 0-7.37-.382-10.42-1.146v-7.9c.93.34 2.24.637 3.94.892 1.78.255 3.26.382 4.45.382 2.88 0 5.21-.764 6.99-2.293 1.78-1.529 3.39-4.077 4.83-7.644l3.31-7.9-27.08-60.773h10.42l21.87 49.434 20.22-49.434h10.43l-28.23 69.31c-2.37 5.86-5.17 10.15-8.39 12.868-3.14 2.803-7.25 4.204-12.34 4.204ZM1016.83 60.93l4.9-3.823c-19.15-25.292-59.418-35.806-92.749-24.635-35.64 12.15-58.75 45.992-57.759 84.098.99 37.129 26.738 69.321 62.713 79.498 35.64 9.857 70.955-4.592 87.795-26.606-9.25-6.892-18.16-13.792-27.071-20.692-29.375 20.692-55.114 20.364-74.916-.986-17.165-18.071-17.828-46.985-1.654-66.363a49.888 49.888 0 0 1 31.357-17.743c17.492-2.957 32.34 2.965 45.213 14.786 7.331-5.946 14.661-11.668 22.171-17.535Zm231.96 20.82V37.4c0-4.6 1.65-5.914 5.94-5.585 7.59.32 15.51.32 23.1 0 4.63-.329 6.27 1.314 6.27 5.914-.32 28.25-.32 56.178 0 84.427 0 22.014 16.83 40.086 38.29 42.378a43.283 43.283 0 0 0 29.71-7.339 43.488 43.488 0 0 0 17.48-25.182c1-4.271 1.32-8.871 1.32-13.463 0-8.84.04-17.671.07-26.526v-.065c.08-17.782.16-35.606-.07-53.573 0-5.257 1.32-7.228 6.94-6.9 7.59.32 15.51.32 23.1 0 3.3 0 4.95.657 4.95 4.272-.11 10.626-.03 21.213.04 31.799.14 21.14.29 42.233-1.03 63.47-2.31 38.435-36.96 68.007-76.9 68.992-37.62.657-72.61-27.928-77.56-64.72-1.54-11.837-1.62-23.665-1.69-35.59 0-5.988-.1-11.975-.29-17.96h.33Zm-481.524 77.534V39.701c0-4.007 0-5.97.983-6.949.959-.937 2.861-.937 6.6-.937 2.438 0 4.835.032 7.216.072 4.731.072 9.414.144 14.24-.08 4.955-.32 6.273 1.322 6.273 6.25-.223 24.523-.151 49.054-.08 73.585.04 12.261.08 24.53.08 36.8v42.377c0 4.272-1.326 5.586-5.609 5.586a1005.951 1005.951 0 0 0-44.559 0c-4.291 0-5.937-2.3-7.591-5.257a21355.992 21355.992 0 0 0-51.143-82.608l-19.482-31.39-.288-.425c-1.19-1.787-2.213-3.334-4.667-5.161 0 .986-.079 1.891-.159 2.789-.08.905-.168 1.81-.168 2.797v111.369c0 7.886 0 7.886-8.255 7.886-2.429 0-4.826-.04-7.208-.08a232.338 232.338 0 0 0-14.24.08c-4.627.32-5.945-1.314-5.945-5.914V38.058c0-4.6 1.318-6.251 6.273-6.251 13.529.336 27.065.336 40.594 0 4.292 0 6.929 1.322 8.91 4.936a73148.032 73148.032 0 0 0 36.328 58.847l.04.056c12.106 19.594 24.213 39.188 36.239 58.71.663.978 1.239 1.883 1.814 2.781a162.28 162.28 0 0 0 1.822 2.805c.991-.658 1.646-.658 1.982-.658ZM1720.42 31.486c4.95 0 6.6 1.643 6.27 6.572-.33 7.663-.33 15.337 0 23 0 3.935-1.32 5.249-5.28 5.249-6.93-.16-13.78-.16-20.63-.16s-13.7 0-20.63-.16c-5.28 0-6.6 1.634-6.6 6.563.22 24.923.15 49.686.08 74.513v.112c-.04 12.446-.08 24.908-.08 37.401 0 1.243.01 2.348.02 3.334.05 4.183.07 6.195-.93 7.149-.93.881-2.74.833-6.24.753-1.47-.04-2.93-.061-4.4-.064-1.96 0-3.97-.04-5.99-.08-4.06-.121-8.11-.094-12.16.08-5.94.657-7.26-1.972-7.26-7.229.22-25.404.14-50.808.07-76.212-.04-12.71-.07-25.404-.07-38.115 0-4.103 0-6.162-1.03-7.188-1.03-1.026-3.1-1.026-7.23-1.026h-38.94c-4.29 0-6.27-.985-5.94-5.585.33-7.886.33-15.772 0-23.65 0-4.271 1.65-5.585 5.61-5.585 22.11.32 44.22.32 66.33.32h65.03v.008Zm-631.7 6.572v75.555c0 12.91.08 25.741.17 38.443v.168c.08 12.454.16 24.779.16 36.952 0 3.943.66 5.915 5.28 5.915h89.77c3.63 0 4.95-1.315 4.95-4.929-.33-8.101-.33-16.213 0-24.314.34-4.921-1.65-6.243-6.6-6.243-8.25.168-16.58.168-24.96.168-8.37 0-16.79 0-25.2.161-4.95.328-6.6-1.307-6.6-6.235.21-8.976.14-17.96.07-26.943-.04-4.488-.07-8.976-.07-13.464V38.378c0-3.566 0-5.37-.91-6.29-.94-.938-2.83-.938-6.68-.938-2.54 0-5.07.032-7.59.072-5.07.072-10.13.144-15.19-.08-5.28-.32-6.6 1.98-6.6 6.908v.008Zm-577.24 75.555V38.058c0-4.929 1.319-6.9 6.601-6.572 7.591.32 15.51.32 23.102 0 5.609-.328 7.591 1.315 7.264 7.229-.174 20.376-.2 40.753-.08 61.13v.088c.04 10.226.08 20.476.08 30.766v59.135c0 4.928-1.319 6.571-6.273 6.242a303.164 303.164 0 0 0-24.421 0c-4.954.321-6.601-1.314-6.601-6.242.496-19.226.432-38.259.368-57.252v-.016c-.016-6.323-.04-12.638-.04-18.953Zm1005.96 75.563v-75.563c0-6.331-.02-12.646-.04-18.953-.06-18.865-.13-37.641.37-56.602 0-5.257-1.65-6.9-6.93-6.572-7.59.32-15.51.32-23.1 0-4.29 0-5.61 1.315-5.61 5.586v45.663c0 11.941.03 23.858.07 35.759.07 23.761.15 47.482-.07 71.34 0 4.928 1.32 6.571 6.27 6.242 7.36-.328 14.74-.328 22.11 0 5.28.321 6.93-1.642 6.93-6.9Z"/><path d="M.563 193.325c0-95.749 69.95-176.347 165.415-191.078C272.143-14.12 372.947 60.75 387.354 167.117c1.235 8.184 1.644 16.367 1.644 24.551 0 8.184-4.523 13.094-11.517 13.503-6.586 0-11.528-4.91-12.354-12.675-1.634-13.912-2.461-28.243-5.749-41.317-17.286-68.732-76.127-118.662-146.076-126.018-90.533-9.81-173.236 51.966-186.815 141.976-10.292 67.914 14.406 123.154 69.133 164.471 2.052 1.637 4.523 3.273 6.994 4.91 6.575 4.9 8.229 11.856 4.114 17.585-4.114 5.729-10.7 6.956-17.285 2.455-18.511-11.866-34.572-26.178-47.723-43.363C14.542 277.596.563 237.916.563 193.315v.01Z" fill="#FF5F00"/><path d="M328.105 192.906c-.827-71.587-58.024-129.69-130.026-131.328-11.527-.399-18.113-9.002-13.171-17.584 2.879-4.91 6.994-6.138 12.344-6.138 38.676.4 72.829 13.493 101.632 39.271 33.744 29.871 51.847 67.914 52.674 112.515 1.644 85.908-63.365 150.14-139.083 158.323-23.044 2.455-44.853 0-66.652-6.956-6.177-2.036-9.464-6.128-9.066-12.674.418-6.138 4.533-9.821 10.292-10.639 2.471-.409 5.758.399 8.229 1.227 75.718 22.505 152.662-22.095 169.529-99.001 1.654-8.603 2.063-18.014 3.288-27.016h.01Z" fill="#FF5F00"/><path d="M195.19 75.49c47.324 1.637 82.294 22.914 105.338 64.232 2.889 4.91 3.706 10.229-.817 14.321-2.889 2.455-8.229 4.501-11.936 4.092-3.287-.409-6.993-4.491-9.046-7.775-15.642-27.814-39.094-44.59-71.195-49.91-52.664-8.593-104.919 33.952-107.4 86.727a101.199 101.199 0 0 0 9.883 49.101c2.889 6.138 1.236 11.867-3.706 15.549-4.932 3.274-9.863 2.865-14.397-.818-1.643-1.228-2.889-3.693-4.114-5.729-35.797-72.824 11.099-158.742 92.167-168.961 5.35-.42 10.291-.42 15.223-.829Z" fill="#FF5F00"/><path d="M195.19 273.504a80.776 80.776 0 0 1-56.045-22.335 81.05 81.05 0 0 1-25.013-54.98c-.409-8.184 4.114-13.912 11.108-14.322 6.586-.409 11.936 4.092 12.354 12.276 1.644 23.313 12.334 40.499 33.735 50.728 33.326 15.549 73.247-5.319 79.414-41.736.409-3.274.827-6.956 1.235-10.23.827-6.537 5.759-11.038 11.528-11.038 6.167 0 11.925 4.911 11.925 11.448-.408 7.784-1.235 15.548-3.288 22.914-9.464 33.962-41.146 57.285-76.953 57.285v-.01Z" fill="#FF5F00"/></g><defs><clipPath id="a"><path d="M0 0h1728v359.29H0z"/></clipPath></defs></svg>