<svg width="154" height="40" viewBox="0 0 154 40" fill="none" xmlns="http://www.w3.org/2000/svg"><path d="M65.2682 10.5099C67.3407 10.5099 69.1008 11.1898 70.5203 12.5495C71.9398 13.9093 72.6496 15.6374 72.6496 17.7337C72.6496 19.83 71.9398 21.558 70.5203 22.9178C69.1008 24.2776 67.3691 24.9575 65.2682 24.9575H62.5144V31.1331H57.2339V10.5099H65.2682ZM65.2682 19.915C65.8644 19.915 66.347 19.7167 66.7445 19.2918C67.1419 18.8668 67.3407 18.3569 67.3407 17.7054C67.3407 17.0538 67.1419 16.5439 66.7445 16.119C66.347 15.7224 65.836 15.5241 65.2682 15.5241H62.5144V19.915H65.2682V19.915Z" fill="#E10000"></path><path d="M78.9237 14.3343C78.3559 14.9009 77.7029 15.1841 76.9364 15.1841C76.1699 15.1841 75.5169 14.9009 74.9491 14.3343C74.3813 13.7677 74.0974 13.1162 74.0974 12.3513C74.0974 11.5864 74.3813 10.9349 74.9491 10.3683C75.5169 9.83004 76.1699 9.54675 76.9364 9.54675C77.7029 9.54675 78.3559 9.83004 78.9237 10.3683C79.4915 10.9065 79.7754 11.5864 79.7754 12.3513C79.7754 13.1162 79.4915 13.796 78.9237 14.3343ZM74.4949 31.1048V16.3739H79.3779V31.0765H74.4949V31.1048Z" fill="#E10000"></path><path d="M91.1882 15.9773C92.7781 15.9773 94.084 16.5155 95.106 17.6204C96.1281 18.6968 96.6107 20.2832 96.6107 22.3229V31.1331H91.7276V22.9178C91.7276 22.1529 91.5289 21.5864 91.1314 21.1898C90.734 20.7932 90.1946 20.5949 89.5132 20.5949C88.7467 20.5949 88.1505 20.8215 87.7247 21.2747C87.2988 21.728 87.1001 22.4079 87.1001 23.2577V31.0764H82.217V16.3739H87.1001V17.847C87.9802 16.6005 89.3429 15.9773 91.1882 15.9773Z" fill="#E10000"></path><path d="M112.338 31.1048L111.345 28.1303H104.333L103.452 31.1048H97.7461L104.333 10.5099H110.976L117.789 31.1048H112.338ZM105.667 23.5977H109.812L107.711 16.6005L105.667 23.5977ZM128.152 15.9773C130.11 15.9773 131.757 16.7139 133.091 18.1869C134.426 19.66 135.079 21.5297 135.079 23.7393C135.079 25.949 134.426 27.7903 133.091 29.2918C131.757 30.7648 130.11 31.5014 128.152 31.5014C126.363 31.5014 124.972 30.9065 123.978 29.745V36.9688H119.095V16.3739H123.978V17.7337C124.972 16.5722 126.363 15.9773 128.152 15.9773ZM124.802 26.0623C125.369 26.6572 126.108 26.9405 127.044 26.9405C127.981 26.9405 128.719 26.6572 129.287 26.0623C129.855 25.4674 130.139 24.7025 130.139 23.7393C130.139 22.7762 129.855 22.0113 129.287 21.4164C128.719 20.8215 127.981 20.5382 127.044 20.5382C126.108 20.5382 125.369 20.8215 124.802 21.4164C124.234 22.0113 123.95 22.7762 123.95 23.7393C123.95 24.7025 124.234 25.4674 124.802 26.0623ZM146.264 15.9773C148.223 15.9773 149.87 16.7139 151.204 18.1869C152.538 19.66 153.191 21.5297 153.191 23.7393C153.191 25.949 152.538 27.7903 151.204 29.2918C149.87 30.7648 148.223 31.5014 146.264 31.5014C144.476 31.5014 143.085 30.9065 142.091 29.745V36.9688H137.208V16.3739H142.091V17.7337C143.085 16.5722 144.476 15.9773 146.264 15.9773ZM142.943 26.0623C143.51 26.6572 144.249 26.9405 145.185 26.9405C146.122 26.9405 146.86 26.6572 147.428 26.0623C147.996 25.4674 148.28 24.7025 148.28 23.7393C148.28 22.7762 147.996 22.0113 147.428 21.4164C146.86 20.8215 146.122 20.5382 145.185 20.5382C144.249 20.5382 143.51 20.8215 142.943 21.4164C142.375 22.0113 142.091 22.7762 142.091 23.7393C142.091 24.7025 142.375 25.4674 142.943 26.0623Z" fill="#00B7E4"></path><path d="M36.5094 0H31.0301L22.9106 8.13031L40.1149 25.2975V3.56941C40.0865 1.5864 38.4967 0 36.5094 0Z" fill="#E10000"></path><path d="M0 36.4306C0 38.3852 1.58983 40 3.57712 40H9.05635L17.2042 31.8696L0 14.7308V36.4306Z" fill="#E10000"></path><path d="M7.8072 17.1955L25.0398 0H3.57712C1.58983 0 0 1.5864 0 3.56941V9.4051L7.8072 17.1955Z" fill="#00B7E4"></path><path d="M40.0865 30.5949L32.2793 22.8046L15.0466 40H36.5377C38.4966 40 40.1148 38.4136 40.1148 36.4306V30.5949H40.0865Z" fill="#00B7E4"></path></svg>