<svg xmlns="http://www.w3.org/2000/svg" viewBox="0 0 1600 417" class="logo"><path class="st0" fill="#6cb52d" d="M366.9 29c-5.8 14.1-13.3 26.6-21.6 37.8-36.6-37.3-87.8-61-144.3-61C90 5.8-.7 96-.7 207.4-.7 265.6 24.2 318 63.7 355l7.5 6.7c34.9 29.5 80.3 47.4 129.7 47.4 106 0 193.3-82.7 200.8-187.1 6-50.7-9.4-115.6-34.8-193zm-274 327.7c-5.8 7.5-16.6 8.3-24.1 2.5s-8.3-16.6-2.5-24.1 16.6-8.3 24.1-2.5c7.1 5.8 8.3 16.6 2.5 24.1zm272.8-60.3c-49.5 66.1-155.9 43.7-223.7 47 0 0-12.1.8-24.1 2.5 0 0 4.6-2.1 10.4-4.2 47.8-16.6 70.3-20 99.4-34.9 54.5-27.9 108.9-89 119.8-152.2-20.8 60.7-84 113.1-141.4 134.3-39.5 14.6-110.6 28.7-110.6 28.7l-2.9-1.7c-48.2-23.7-49.9-128.5 38.3-162.2 38.7-15 75.3-6.7 117.3-16.6 44.5-10.4 96.1-43.7 116.8-87.3 23.1 70.3 51.4 179.2.7 246.6z"/><path class="st1" fill="#fff" d="M516.2 286.4c-5-2.5-8.3-8.3-8.3-15.4 0-10 7.9-18.3 18.3-18.3 3.7 0 7.1 1.2 9.6 2.5 18.7 12.5 38.7 18.7 56.1 18.7 19.1 0 30.4-8.3 30.4-21.2v-.8c0-15.4-20.8-20.4-43.7-27.4-28.7-8.3-61.1-20-61.1-57.4v-.8c0-37 30.8-59.5 69.4-59.5 20.8 0 42.4 5.8 61.5 15.8 6.2 3.3 10.8 9.1 10.8 17 0 10.4-8.3 18.3-18.7 18.3-3.7 0-5.8-.8-8.7-2.1-15.8-8.3-32-13.3-45.7-13.3-17.5 0-27.4 8.3-27.4 19.1v.8c0 14.6 21.2 20.4 44.1 27.9 28.7 8.7 60.7 22 60.7 57v.8c0 41.2-32 61.5-72.3 61.5-25.5.1-52.6-7.8-75-23.2zM680 129.7c0-12.5 9.6-22.5 22-22.5s22.5 10 22.5 22.5V143c14.6-20.4 34.9-36.6 66.5-36.6 45.7 0 90.6 36.2 90.6 101.5v.8c0 64.9-44.5 101.5-90.6 101.5-32.4 0-52.8-16.2-66.5-34.5v69c0 12.5-10 22.5-22.5 22.5-12.1 0-22-9.6-22-22.5v-215zm156.8 79v-.8c0-37.8-25.4-62.4-55.7-62.4-30.4 0-57 25.4-57 62.4v.8c0 37.4 26.6 62.4 57 62.4 30.3.4 55.7-23.8 55.7-62.4zm62.3-79c0-12.5 9.6-22.5 22-22.5s22.5 10 22.5 22.5v10.8c2.1-16.6 29.5-33.3 49.1-33.3 14.1 0 22 9.1 22 22 0 11.6-7.9 19.5-17.9 21.6-32 5.4-53.6 33.3-53.6 71.9v64.4c0 12.1-10 22-22.5 22-12.1 0-22-9.6-22-22V129.7h.4zm133.5.4c0-12.5 9.6-22.5 22-22.5s22.5 10 22.5 22.5v157.6c0 12.5-10 22-22.5 22-12.1 0-22-9.6-22-22V130.1zm67.4 0c0-12.5 9.6-22.5 22-22.5s22.5 10 22.5 22.5v9.1c12.5-18.3 30.8-32 61.1-32 44.1 0 69.4 29.5 69.4 74.8v105.2c0 12.5-9.6 22-22 22s-22.5-9.6-22.5-22v-91.5c0-30.4-15-47.8-42-47.8-25.8 0-44.1 18.3-44.1 48.6v91.1c0 12.5-10 22-22.5 22-12.1 0-22-9.6-22-22l.1-157.5zm372.1-23.3c-12.5 0-22.5 10-22.5 22.5v13.3c-14.6-20.4-34.9-36.6-66.5-36.6-45.7 0-90.6 36.2-90.6 101.5v.8c0 64.9 44.5 101.5 90.6 101.5 32.4 0 52.8-16.2 66.5-34.1-2.1 35.3-23.7 53.6-61.5 53.6-22.5 0-42-5.4-59.9-15.4-2.1-1.2-5-1.7-7.9-1.7-10.4 0-19.1 8.3-19.1 18.3 0 8.7 5 15 12.5 17.9 23.7 11.6 48.2 17.5 75.7 17.5 35.3 0 62.8-8.3 80.3-26.2 16.2-16.2 24.9-40.7 24.9-73.6V129.7c0-12.9-10-22.9-22.5-22.9zM1393.5 271c-30.8 0-55.7-24.1-55.7-62.8v-.8c0-37.8 25.4-62.4 55.7-62.4s57 25.4 57 62.4v.8c.4 37.5-26.2 62.8-57 62.8zm-316-217.4c0 12.5-10 22.5-22.5 22.5s-22.5-10-22.5-22.5 10-22.5 22.5-22.5c12.1-.4 22.5 9.6 22.5 22.5zm468.2 100.2c-12.5 0-22.9-10.4-22.9-22.9 0-12.9 10.4-22.9 22.9-22.9 12.9 0 22.9 10.4 22.9 22.9s-10 22.9-22.9 22.9zm0-42.4c-10.8 0-19.5 8.7-19.5 19.5s8.7 19.5 19.5 19.5 19.5-8.7 19.5-19.5c0-11.2-8.7-19.5-19.5-19.5zm6.2 32.4-6.7-10.4h-4.6v10.4h-3.7v-26.2h10.8c4.6 0 8.7 3.3 8.7 7.9 0 5.8-5.4 7.9-6.7 7.9l7.1 10.4h-4.9zm-4.5-22.9h-6.7v9.1h7.1c2.1 0 4.6-1.7 4.6-4.6 0-2.8-2.5-4.5-5-4.5zM92.9 356.7c-5.8 7.5-16.6 8.3-24.1 2.5s-8.3-16.6-2.5-24.1 16.6-8.3 24.1-2.5c7.1 5.8 8.3 16.6 2.5 24.1z"/><path class="st3" fill="#fff" d="M365.7 296.4c-49.5 66.1-155.9 43.7-223.7 47 0 0-12.1.8-24.1 2.5 0 0 4.6-2.1 10.4-4.2 47.8-16.6 70.3-20 99.4-34.9 54.5-27.9 108.9-89 119.8-152.2-20.8 60.7-84 113.1-141.4 134.3-39.5 14.6-110.6 28.7-110.6 28.7l-2.9-1.7c-48.2-23.7-49.9-128.5 38.3-162.2 38.7-15 75.3-6.7 117.3-16.6 44.5-10.4 96.1-43.7 116.8-87.3 23.1 70.3 51.4 179.2.7 246.6z"/></svg>